<?xml version="1.0" encoding="UTF-8"?>
<svg xmlns="http://www.w3.org/2000/svg" width="40px" height="40px" viewBox="0 0 40 40" version="1.1">
<g id="surface1">
<path style=" stroke:none;fill-rule:nonzero;fill:rgb(38.039216%,33.333334%,33.333334%);fill-opacity:1;" d="M 22.347656 32.242188 L 20.230469 38.257812 C 20.230469 38.257812 24.679688 38.195312 25.972656 38.066406 C 27.265625 37.933594 29.664062 37.09375 30.050781 35.800781 C 30.4375 34.507812 29.726562 29.390625 29.726562 29.390625 C 29.726562 29.390625 31.667969 28.871094 32.574219 27.835938 C 33.480469 26.804688 33.222656 25.117188 33.15625 23.953125 C 33.089844 22.789062 33.042969 13.132812 32.898438 11.976562 C 32.675781 10.25 32.054688 8.671875 31.019531 7.507812 C 29.980469 6.347656 28.777344 5.796875 28.347656 5.582031 C 27.796875 5.304688 26.039062 4.867188 26.039062 4.867188 Z M 22.347656 32.242188 "/>
<path style=" stroke:none;fill-rule:nonzero;fill:rgb(29.019609%,25.882354%,25.098041%);fill-opacity:1;" d="M 10.414062 8.132812 C 10.363281 8.234375 9.335938 9.054688 9.308594 9.898438 C 9.285156 10.746094 9.4375 11.429688 9.539062 12.003906 C 9.636719 12.546875 9.839844 13.53125 9.839844 13.53125 L 26.210938 13.441406 C 26.210938 13.441406 26.847656 12.851562 26.75 11.800781 C 26.597656 10.105469 25.878906 9.257812 25.238281 8.492188 C 24.597656 7.722656 16.335938 6.464844 16.335938 6.464844 C 16.335938 6.464844 10.4375 8.082031 10.414062 8.132812 Z M 10.414062 8.132812 "/>
<path style=" stroke:none;fill-rule:nonzero;fill:rgb(56.862748%,51.372552%,49.803922%);fill-opacity:1;" d="M 26.691406 2.757812 C 26.691406 2.757812 27.300781 2.957031 28.117188 4.019531 C 28.796875 4.902344 28.570312 6.082031 28.183594 7.253906 C 27.875 8.199219 27.167969 9.570312 26.203125 9.363281 C 25.417969 9.195312 22.332031 8.222656 19.851562 7.839844 C 16.671875 7.351562 14.597656 7.453125 12.453125 8.167969 C 10.414062 8.847656 9.3125 9.902344 9.3125 9.902344 C 9.3125 9.902344 9.226562 8.683594 9.5 8.003906 C 9.773438 7.320312 12.699219 5.894531 12.699219 5.894531 Z M 26.691406 2.757812 "/>
<path style=" stroke:none;fill-rule:nonzero;fill:rgb(74.901962%,70.19608%,70.19608%);fill-opacity:1;" d="M 24.539062 7.082031 C 25.695312 7.195312 26.515625 6.367188 26.890625 5.039062 C 27.265625 3.710938 27.171875 3.121094 27 2.917969 C 26.832031 2.714844 23.042969 0.882812 18.242188 1.292969 C 13.445312 1.703125 12.214844 3.1875 11.503906 3.882812 C 10.277344 5.070312 9.421875 7.167969 9.484375 8.070312 C 9.484375 8.085938 10.195312 6.703125 14.804688 6.164062 C 20.046875 5.550781 23.179688 6.945312 24.539062 7.082031 Z M 24.539062 7.082031 "/>
<path style=" stroke:none;fill-rule:nonzero;fill:rgb(58.039218%,52.156866%,52.156866%);fill-opacity:1;" d="M 9.9375 14.230469 C 9.9375 14.230469 9.699219 13.3125 9.902344 13.039062 C 10.105469 12.769531 10.890625 12.085938 12.082031 11.851562 C 13.273438 11.613281 14.496094 11.917969 14.496094 11.917969 L 18.957031 10.386719 C 18.957031 10.386719 19.261719 10.832031 19.5 11.339844 C 19.738281 11.851562 20.042969 12.941406 20.042969 12.941406 C 20.042969 12.941406 20.367188 12.476562 21.382812 12.167969 C 22.40625 11.863281 24.125 12.304688 24.125 12.304688 L 25.082031 20.496094 C 25.082031 20.496094 24.84375 22.742188 24.914062 27.273438 C 24.980469 31.800781 24.945312 33.875 24.742188 35.476562 C 24.65625 36.160156 24.039062 37.820312 21.375 38.230469 C 18.832031 38.621094 14.363281 39.082031 11.027344 38.808594 C 7.691406 38.539062 6.761719 37.230469 6.429688 36.597656 C 6.089844 35.941406 6.570312 34.101562 6.570312 34.101562 L 8.304688 32.410156 C 8.304688 32.410156 7.417969 26.28125 7.382812 26.113281 C 7.351562 25.941406 9.9375 14.230469 9.9375 14.230469 Z M 9.9375 14.230469 "/>
<path style=" stroke:none;fill-rule:nonzero;fill:rgb(74.901962%,70.19608%,70.19608%);fill-opacity:1;" d="M 26.386719 13.433594 C 25.964844 12.914062 24.152344 11.84375 22.664062 12.414062 C 21.105469 13.007812 20.316406 14.976562 20.824219 16.609375 C 21.171875 17.726562 22.195312 18.800781 23.054688 19.742188 C 23.976562 20.753906 24.398438 21.523438 24.796875 21.523438 C 25.195312 21.523438 25.589844 17.976562 25.890625 16.710938 C 26.191406 15.445312 26.664062 13.773438 26.386719 13.433594 Z M 26.386719 13.433594 "/>
<path style=" stroke:none;fill-rule:nonzero;fill:rgb(38.039216%,33.725491%,32.941177%);fill-opacity:1;" d="M 20.476562 12.566406 C 20.476562 12.566406 20.230469 12.691406 20.105469 12.617188 C 19.980469 12.539062 19.792969 12.109375 19.792969 12.109375 C 19.792969 12.109375 16.144531 16.960938 15.945312 17.257812 C 15.746094 17.554688 15.820312 17.679688 15.917969 17.804688 C 16.019531 17.929688 17.945312 17.523438 19.109375 18.390625 C 20.324219 19.296875 20.371094 21.0625 19.898438 21.734375 C 19.429688 22.402344 17.984375 22.449219 17.039062 21.75 C 16.570312 21.40625 14.554688 20.351562 12.023438 20.351562 C 10.964844 20.351562 9.101562 20.535156 9.101562 20.535156 L 7.96875 21.570312 L 9.085938 23.132812 L 13.570312 24.734375 L 14.230469 23.671875 C 14.230469 23.671875 18.125 24.082031 19.433594 23.863281 C 20.742188 23.644531 21.820312 22.59375 21.59375 20.613281 C 21.382812 18.800781 20.132812 18.003906 19.523438 16.601562 C 18.996094 15.386719 19.53125 14.175781 19.71875 13.722656 C 19.871094 13.359375 20.476562 12.566406 20.476562 12.566406 Z M 20.476562 12.566406 "/>
<path style=" stroke:none;fill-rule:nonzero;fill:rgb(38.039216%,33.725491%,32.941177%);fill-opacity:1;" d="M 14.671875 25.386719 L 17.277344 26.519531 C 17.277344 26.519531 18.738281 26.867188 18.9375 27.285156 C 19.066406 27.550781 18.917969 28.03125 18.226562 27.832031 C 17.824219 27.714844 15.964844 27.199219 15.414062 27.066406 C 14.742188 26.898438 11.089844 26.699219 10.222656 26.925781 C 9.570312 27.09375 8.714844 27.765625 8.242188 27.648438 C 7.785156 27.539062 7.820312 27.257812 7.816406 26.746094 C 7.8125 26.453125 8.796875 25.804688 8.796875 25.804688 L 13.957031 25.148438 Z M 14.671875 25.386719 "/>
<path style=" stroke:none;fill-rule:nonzero;fill:rgb(38.039216%,33.725491%,32.941177%);fill-opacity:1;" d="M 9.585938 27.941406 C 9.273438 28.652344 11.390625 29.511719 12.445312 29.542969 C 14.820312 29.617188 16.15625 28.210938 16.132812 28.085938 C 16.074219 27.828125 13.835938 27.792969 12.375 27.773438 C 11.039062 27.757812 9.695312 27.683594 9.585938 27.941406 Z M 9.585938 27.941406 "/>
<path style=" stroke:none;fill-rule:nonzero;fill:rgb(74.901962%,70.19608%,70.19608%);fill-opacity:1;" d="M 15.617188 20.285156 C 15.996094 20.425781 17.023438 20.175781 17.976562 19.699219 C 18.929688 19.222656 19.429688 18.898438 19.410156 18.679688 C 19.386719 18.464844 18.757812 17.945312 17.933594 17.855469 C 17.070312 17.765625 16.53125 17.894531 16.332031 18.09375 C 16.050781 18.375 14.964844 20.046875 15.617188 20.285156 Z M 15.617188 20.285156 "/>
<path style=" stroke:none;fill-rule:nonzero;fill:rgb(29.019609%,25.882354%,25.098041%);fill-opacity:1;" d="M 13.097656 21.113281 C 12.523438 21.191406 12.820312 22.007812 13.097656 22.441406 C 13.398438 22.914062 13.699219 23.234375 14.054688 23.296875 C 14.40625 23.359375 16.171875 23.382812 16.152344 22.796875 C 16.132812 22.210938 13.867188 21.007812 13.097656 21.113281 Z M 13.097656 21.113281 "/>
<path style=" stroke:none;fill-rule:nonzero;fill:rgb(29.019609%,25.882354%,25.098041%);fill-opacity:1;" d="M 10.695312 21.320312 C 10.371094 21.210938 9.679688 21.804688 9.601562 22.042969 C 9.527344 22.289062 10.054688 23.125 10.855469 22.933594 C 11.421875 22.804688 10.976562 21.414062 10.695312 21.320312 Z M 10.695312 21.320312 "/>
<path style=" stroke:none;fill-rule:nonzero;fill:rgb(74.901962%,70.19608%,70.19608%);fill-opacity:1;" d="M 18.960938 10.382812 C 18.976562 10.808594 15.429688 16.480469 15.011719 17.164062 C 14.59375 17.851562 13.597656 19.488281 13.304688 19.746094 C 12.945312 20.070312 11.738281 20.402344 11.105469 20.449219 C 9.527344 20.570312 8.746094 21.113281 8.558594 21.492188 C 8.371094 21.867188 9.773438 23.121094 10.78125 23.367188 C 11.789062 23.617188 13.929688 23.539062 14.332031 23.710938 C 14.730469 23.878906 15.523438 24.558594 16.148438 24.921875 C 16.773438 25.285156 17.632812 25.894531 17.613281 26.214844 C 17.59375 26.539062 17.457031 26.570312 17.175781 26.496094 C 16.84375 26.414062 15.445312 25.992188 14.617188 25.894531 C 13.105469 25.71875 10.890625 25.640625 9.625 25.964844 C 8.929688 26.144531 7.664062 26.777344 7.839844 27.351562 C 8 27.863281 8.261719 28.246094 8.636719 28.71875 C 8.960938 29.128906 9.585938 30.21875 9.984375 30.863281 C 10.382812 31.507812 11.164062 32.570312 12.675781 32.679688 C 14.4375 32.804688 15.125 31.925781 15.945312 30.820312 C 16.757812 29.722656 17.234375 28.582031 18.390625 28.714844 C 19.546875 28.851562 19.792969 30.289062 20.003906 31.316406 C 20.210938 32.339844 20.855469 35.113281 20.535156 35.757812 C 20.210938 36.398438 19.679688 36.460938 18.730469 36.628906 C 17.78125 36.800781 13.492188 37.40625 10.914062 37.046875 C 8.332031 36.6875 6.71875 35.851562 6.566406 34.988281 C 6.414062 34.121094 6.773438 33.761719 6.832031 32.09375 C 6.886719 30.425781 6.699219 22.648438 7.441406 19.457031 C 8.179688 16.265625 9.429688 14.53125 10.171875 13.945312 C 10.914062 13.355469 12.445312 12.769531 12.773438 12.945312 C 13.105469 13.125 11.371094 16.800781 11.371094 16.800781 C 11.371094 16.800781 12.46875 16.492188 12.570312 16.238281 C 12.675781 15.980469 15.507812 9.855469 16.042969 9.550781 C 16.582031 9.242188 17.121094 9.296875 17.757812 9.5 C 18.398438 9.714844 18.960938 10.382812 18.960938 10.382812 Z M 18.960938 10.382812 "/>
<path style=" stroke:none;fill-rule:nonzero;fill:rgb(83.137256%,80.000001%,80.392158%);fill-opacity:1;" d="M 10.632812 14.308594 C 10.273438 14.070312 9.742188 14.4375 9.511719 14.921875 C 9.285156 15.40625 9.460938 15.839844 9.691406 15.945312 C 9.917969 16.046875 10.375 15.941406 10.6875 15.460938 C 10.964844 15.023438 11.015625 14.5625 10.632812 14.308594 Z M 10.632812 14.308594 "/>
<path style=" stroke:none;fill-rule:nonzero;fill:rgb(83.137256%,80.000001%,80.392158%);fill-opacity:1;" d="M 16.695312 9.324219 C 15.585938 9.332031 15.039062 9.898438 14.449219 10.914062 C 13.808594 12.023438 13.648438 13.3125 12.726562 14.714844 C 11.808594 16.117188 10.839844 17.34375 10.429688 17.726562 C 10.023438 18.113281 9.128906 19.210938 9.714844 19.71875 C 10.304688 20.226562 11.117188 19.4375 11.679688 18.722656 C 12.242188 18.007812 13.414062 15.835938 14.003906 14.917969 C 14.589844 14 16.863281 11.011719 17.242188 10.324219 C 17.476562 9.902344 17.3125 9.320312 16.695312 9.324219 Z M 16.695312 9.324219 "/>
<path style=" stroke:none;fill-rule:nonzero;fill:rgb(83.137256%,80.000001%,80.392158%);fill-opacity:1;" d="M 10.273438 23.777344 C 9.890625 23.6875 9.535156 23.699219 9.253906 24.058594 C 8.972656 24.414062 8.914062 24.894531 9.304688 25.027344 C 9.8125 25.207031 10.195312 25.027344 10.503906 24.695312 C 10.742188 24.445312 10.8125 23.90625 10.273438 23.777344 Z M 10.273438 23.777344 "/>
<path style=" stroke:none;fill-rule:nonzero;fill:rgb(83.137256%,80.000001%,80.392158%);fill-opacity:1;" d="M 10.992188 34.417969 C 10.273438 34.496094 10.351562 35.441406 10.507812 35.820312 C 10.660156 36.203125 11.09375 36.433594 11.601562 36.28125 C 12.113281 36.128906 12.191406 35.566406 12.039062 35.105469 C 11.882812 34.648438 11.648438 34.351562 10.992188 34.417969 Z M 10.992188 34.417969 "/>
<path style=" stroke:none;fill-rule:nonzero;fill:rgb(83.137256%,80.000001%,80.392158%);fill-opacity:1;" d="M 23.660156 12.59375 C 22.90625 12.617188 22.625 12.832031 22.367188 13.324219 C 22.082031 13.875 22.390625 14.304688 22.882812 14.335938 C 23.488281 14.382812 23.875 14.210938 24.242188 13.605469 C 24.503906 13.175781 24.304688 12.570312 23.660156 12.59375 Z M 23.660156 12.59375 "/>
<path style=" stroke:none;fill-rule:nonzero;fill:rgb(83.137256%,80.000001%,80.392158%);fill-opacity:1;" d="M 22.238281 14.851562 C 21.894531 14.820312 21.742188 14.980469 21.679688 15.21875 C 21.613281 15.457031 21.785156 15.648438 22.023438 15.671875 C 22.257812 15.695312 22.453125 15.542969 22.539062 15.351562 C 22.625 15.15625 22.476562 14.875 22.238281 14.851562 Z M 22.238281 14.851562 "/>
<path style=" stroke:none;fill-rule:nonzero;fill:rgb(83.137256%,80.000001%,80.392158%);fill-opacity:1;" d="M 12.054688 3.355469 C 12.054688 3.355469 12.796875 2.636719 13.796875 2.242188 C 15.203125 1.679688 16.320312 1.539062 16.320312 1.539062 C 16.320312 1.539062 17.070312 1.460938 17.265625 1.695312 C 17.511719 1.996094 17.070312 2.40625 17.070312 2.40625 C 17.070312 2.40625 17.71875 2.320312 17.890625 2.644531 C 18.0625 2.964844 17.933594 3.484375 17.160156 3.507812 C 16.382812 3.527344 16.621094 2.835938 16.621094 2.835938 C 16.621094 2.835938 16.105469 3.097656 15.675781 3.203125 C 15.242188 3.308594 14.683594 3.179688 14.683594 3.179688 C 14.683594 3.179688 13.761719 4.644531 12.679688 4.34375 C 11.789062 4.101562 12.054688 3.355469 12.054688 3.355469 Z M 12.054688 3.355469 "/>
<path style=" stroke:none;fill-rule:nonzero;fill:rgb(83.137256%,80.000001%,80.392158%);fill-opacity:1;" d="M 11.035156 5.882812 C 11.300781 6.132812 11.824219 6.015625 12.105469 5.585938 C 12.390625 5.152344 12.359375 4.707031 12.105469 4.511719 C 11.851562 4.320312 11.375 4.46875 11.109375 4.808594 C 10.84375 5.148438 10.71875 5.585938 11.035156 5.882812 Z M 11.035156 5.882812 "/>
</g>
</svg>
